<svg id="Capa_1" enable-background="new 0 0 512 512" height="512" viewBox="0 0 512 512" width="512" xmlns="http://www.w3.org/2000/svg"><g><g><path d="m229.533 405.113-20.086 7.458c-10.05 3.65-18.44 10.41-24.15 19.05-3.48 5.29-5.96 11.28-7.19 17.7l-4.35 22.76c-3.22 16.82 9.67 32.42 26.8 32.42h14.96 40.8 40.17 14.96c17 0 29.85-15.37 26.87-32.1l-4.05-22.63c-1.18-6.58-3.67-12.74-7.22-18.15-5.69-8.7-14.12-15.51-24.22-19.18l-20.845-7.536" fill="#a4ace3"/><path d="m292.89 408.849s-35.063 35.985-73.58.423c-.07-.04-.229-.195-.289-.255l10.512-3.903 52.449-.208z" fill="#8a94db"/><path d="m281.967 370.521.015 34.384c-14.918 13.026-37.441 13.073-52.449.208-.1-.07.1.08 0 0v-34.212" fill="#ffeee6"/><path d="m229.533 382.814c.1.08.19.17.291.24 15.008 12.865 37.216 12.795 52.134-.23l.01-.01v-12.293l-52.435.38z" fill="#f4dbc7"/><g><path d="m297.385 307.821v29.78c0 23.35-19.11 43.02-42.46 42.57-22.63-.44-40.83-18.91-40.83-41.64v-30.71c0-23 18.65-41.64 41.65-41.64 11.5 0 21.91 4.66 29.44 12.2 7.54 7.53 12.2 17.94 12.2 29.44z" fill="#ffeee6"/><path d="m297.385 307.821v6.29c-3.17 1.62-7.97 3.67-14.1 4.78-10.48 1.9-18.74-.04-23.02-1.09-9.4-2.3-16.56-6.44-21.33-9.87-1.06-.76-2.53-.57-3.36.43-2.13 2.53-5.46 5.78-10.28 8.35-4.36 2.33-8.4 3.28-11.2 3.7v-12.59c0-23 18.65-41.64 41.65-41.64 11.5 0 21.91 4.66 29.44 12.2 7.54 7.53 12.2 17.94 12.2 29.44z" fill="#7a8c98"/></g><g fill="#8a94db"><path d="m215.517 462.701v41.8h-14.96c-17.13 0-30.02-15.6-26.8-32.42l4.35-22.76c1.23-6.42 3.71-12.41 7.19-17.7 16.77.46 30.22 14.2 30.22 31.08z"/><path d="m311.447 504.501h-14.96v-41.8c0-16.99 13.63-30.8 30.56-31.08 3.55 5.41 6.04 11.57 7.22 18.15l4.05 22.63c2.98 16.73-9.87 32.1-26.87 32.1z"/></g><g><circle cx="458.141" cy="268.716" fill="#596c76" r="22.371"/><g><path d="m477.205 504.501h-110.89c-17.13 0-30.02-15.6-26.8-32.42l4.35-22.76c1.23-6.42 3.71-12.41 7.19-17.7 5.71-8.64 14.1-15.4 24.15-19.05l11.04-4.07 9.24-3.4 52.24-.19 9.19 3.32 11.67 4.21c10.1 3.67 18.53 10.48 24.22 19.18 3.55 5.41 6.04 11.57 7.22 18.15l4.05 22.63c2.98 16.73-9.87 32.1-26.87 32.1z" fill="#bcd1e1"/><g><path d="m395.484 405.102c-.1-.07.101.08 0 0z" fill="#ffcebf"/><path d="m456.915 408.231c-17.3 17.77-13.24 61.15-35.12 61.15-22.05 0-19.93-43.79-35.55-60.88l9.24-3.4 52.24-.19z" fill="#9abbd4"/><path d="m447.725 370.521v34.39c-16.01 7.11-11.02 40.6-26.04 40.6-15.28 0-11.57-34.4-26.2-40.41l-.12-19.83-.08-14.37z" fill="#ffcebf"/></g><path d="m463.145 307.821v29.78c0 23.35-19.11 43.02-42.46 42.57-22.63-.44-40.83-18.91-40.83-41.64v-30.71c0-23 18.64-41.64 41.64-41.64 11.5 0 21.91 4.66 29.45 12.2 7.54 7.53 12.2 17.94 12.2 29.44z" fill="#ffcebf"/><path d="m447.725 370.52v14.38c-7.88 5.06-17.22 7.93-27.2 7.74-9.21-.18-17.82-2.85-25.16-7.37l-.08-14.37z" fill="#ffb09e"/><path d="m463.145 307.819v29.78c0 23.35-19.11 43.02-42.46 42.57-22.63-.44-40.83-18.91-40.83-41.64v-30.71c0-23 18.64-41.64 41.64-41.64 11.5 0 21.91 4.66 29.45 12.2 7.54 7.53 12.2 17.94 12.2 29.44z" fill="#ffcebf"/></g><path d="m463.145 307.821v6.29c-3.17 1.62-7.98 3.67-14.1 4.78-10.48 1.9-18.75-.04-23.03-1.09-9.4-2.3-16.55-6.44-21.33-9.87-1.06-.76-2.52-.57-3.36.43-2.12 2.53-5.46 5.78-10.28 8.35-4.36 2.33-8.4 3.28-11.19 3.7v-12.59c0-23 18.64-41.64 41.64-41.64 11.5 0 21.91 4.66 29.45 12.2 7.54 7.53 12.2 17.94 12.2 29.44z" fill="#7a8c98"/><g fill="#9abbd4"><path d="m381.274 462.701v41.8h-14.96c-17.13 0-30.02-15.6-26.8-32.42l4.35-22.76c1.23-6.42 3.71-12.41 7.19-17.7 16.77.46 30.22 14.2 30.22 31.08z"/><path d="m477.204 504.501h-14.96v-41.8c0-16.99 13.63-30.8 30.56-31.08 3.55 5.41 6.04 11.57 7.22 18.15l4.05 22.63c2.98 16.73-9.87 32.1-26.87 32.1z"/></g></g><g><g><path d="m145.695 504.501h-110.89c-17.13 0-30.02-15.6-26.8-32.42l4.35-22.76c1.23-6.42 3.71-12.41 7.19-17.7 5.71-8.64 14.1-15.4 24.15-19.05l9.492-3.48 10.589-3.881 52.433-.313 10.776 3.883 10.09 3.66c10.1 3.67 18.53 10.48 24.22 19.18 3.55 5.41 6.04 11.57 7.22 18.15l4.05 22.63c2.98 16.731-9.87 32.101-26.87 32.101z" fill="#bcd1e1"/><path d="m126.985 408.781v.16l-.01.01c-21.05 18.38-52.39 18.48-73.57.32-.07-.04-.158-.12-.218-.18l10.589-3.881 52.433-.313z" fill="#9abbd4"/><path d="m63.776 370.901v34.31c.1.08-.1-.07 0 0 15.008 12.865 37.515 12.713 52.433-.313l.002-34.378z" fill="#ffcebf"/><path d="m63.776 382.814c.1.08.19.17.291.24 15.008 12.865 37.216 12.795 52.134-.23l.01-.01v-12.293l-52.435.38z" fill="#ffb09e"/><path d="m131.635 307.821v29.78c0 23.35-19.12 43.02-42.47 42.57-22.62-.44-40.83-18.91-40.83-41.64v-30.71c0-23 18.65-41.64 41.65-41.64 11.5 0 21.91 4.66 29.45 12.2 7.54 7.53 12.2 17.94 12.2 29.44z" fill="#ffcebf"/></g><path d="m131.635 307.821v6.29c-3.18 1.62-7.98 3.67-14.11 4.78-10.48 1.9-18.74-.04-23.02-1.09-9.4-2.3-16.56-6.44-21.33-9.87-1.06-.76-2.52-.57-3.36.43-2.13 2.53-5.46 5.78-10.28 8.35-4.36 2.33-8.4 3.28-11.2 3.7v-12.59c0-23 18.65-41.64 41.65-41.64 11.5 0 21.91 4.66 29.45 12.2 7.54 7.53 12.2 17.94 12.2 29.44z" fill="#7a8c98"/><g fill="#9abbd4"><path d="m49.76 462.701v41.8h-14.96c-17.13 0-30.02-15.6-26.8-32.42l4.35-22.76c1.23-6.42 3.71-12.41 7.19-17.7 16.77.46 30.22 14.2 30.22 31.08z"/><path d="m145.69 504.501h-14.96v-41.8c0-16.99 13.63-30.8 30.56-31.08 3.55 5.41 6.04 11.57 7.22 18.15l4.05 22.63c2.98 16.73-9.87 32.1-26.87 32.1z"/></g></g><g><circle cx="256.005" cy="87.501" fill="#fec165" r="80"/><path d="m276.248 10.087c7.365 12.104 11.607 26.318 11.607 41.523 0 44.183-35.817 80-80 80-6.994 0-13.777-.9-20.243-2.586 14.036 23.07 39.415 38.477 68.393 38.477 44.183 0 80-35.817 80-80 0-37.189-25.377-68.448-59.757-77.414z" fill="#fea613"/></g></g><path d="m256.001 175c17.75 0 34.843-5.288 49.431-15.291 3.416-2.343 4.286-7.011 1.944-10.427-2.343-3.416-7.011-4.285-10.427-1.944-12.08 8.284-26.239 12.662-40.948 12.662-39.977 0-72.5-32.523-72.5-72.5s32.523-72.5 72.5-72.5 72.5 32.523 72.5 72.5c0 13.214-3.587 26.144-10.373 37.392-2.14 3.546-.999 8.156 2.548 10.296 3.546 2.141 8.156.999 10.296-2.548 8.196-13.586 12.529-29.195 12.529-45.14 0-48.248-39.252-87.5-87.5-87.5s-87.5 39.252-87.5 87.5 39.252 87.5 87.5 87.5zm127.625-79.356c16.746 0 30.369 13.624 30.369 30.37v103.39c0 4.142 3.358 7.5 7.5 7.5s7.5-3.358 7.5-7.5v-103.39c0-25.017-20.353-45.37-45.369-45.37-4.142 0-7.5 3.358-7.5 7.5s3.357 7.5 7.5 7.5zm-127.341 49.441c4.142 0 7.5-3.358 7.5-7.5v-5.409c10.821-3.034 18.782-12.979 18.782-24.756v-.854c0-14.649-11.917-26.566-26.566-26.566-6.378 0-11.566-5.188-11.566-11.566v-.854c0-5.907 4.806-10.712 10.713-10.712h1.707c4.77 0 9.009 3.199 10.308 7.779 1.13 3.984 5.273 6.298 9.262 5.168 3.985-1.13 6.299-5.277 5.168-9.262-2.47-8.709-9.366-15.321-17.808-17.706v-5.431c0-4.142-3.358-7.5-7.5-7.5s-7.5 3.358-7.5 7.5v5.25c-11.111 2.839-19.351 12.932-19.351 24.915v.854c0 14.649 11.917 26.566 26.566 26.566 6.378 0 11.566 5.188 11.566 11.566v.854c0 5.907-4.806 10.712-10.713 10.712h-1.707c-4.712 0-8.937-3.15-10.274-7.66-1.178-3.971-5.352-6.236-9.322-5.06-3.971 1.177-6.236 5.351-5.06 9.322 2.592 8.745 9.702 15.355 18.294 17.58v5.27c.001 4.142 3.359 7.5 7.501 7.5zm-166.304 91.818c4.142 0 7.5-3.358 7.5-7.5v-104.39c0-16.746 13.624-30.369 30.37-30.369 4.142 0 7.5-3.358 7.5-7.5s-3.358-7.5-7.5-7.5c-25.017 0-45.37 20.353-45.37 45.369v104.39c0 4.142 3.358 7.5 7.5 7.5zm421.471 234.176-4.05-22.633c-3.514-19.587-17.534-36.25-36.264-43.056l-15.918-5.776v-25.767c.079-.076.161-.147.239-.224 9.648-9.463 15.181-22.593 15.181-36.022v-29.781c0-3.926-.476-7.74-1.35-11.402 11-4.448 18.716-15.254 18.716-27.703 0-16.471-13.4-29.871-29.871-29.871-13.214 0-24.443 8.627-28.371 20.541-2.691-.458-5.451-.71-8.271-.71-27.099 0-49.146 22.046-49.146 49.144v30.712c0 13.94 5.951 26.625 15.437 35.618v25.879l-15.147 5.492c-15.456 5.614-27.879 17.971-33.605 33.359-5.679-15.413-18.204-27.876-33.652-33.49l-15.918-5.776v-25.767c.079-.076.161-.147.239-.224 9.648-9.463 15.181-22.593 15.181-36.022v-29.781c0-27.098-22.047-49.144-49.146-49.144s-49.146 22.046-49.146 49.144v30.712c0 13.94 5.951 26.625 15.437 35.618v25.879l-15.147 5.492c-15.444 5.61-27.894 17.972-33.609 33.358-5.691-15.409-18.202-27.876-33.648-33.489l-15.918-5.776v-25.767c.079-.076.161-.147.239-.224 9.648-9.463 15.181-22.593 15.181-36.022v-29.781c0-27.098-22.047-49.144-49.146-49.144s-49.146 22.046-49.146 49.144v30.712c0 13.94 5.951 26.625 15.437 35.618v25.879l-15.147 5.492c-18.53 6.731-32.439 23.047-36.146 42.391l-4.35 22.758c-1.957 10.223.725 20.687 7.357 28.709 6.634 8.022 16.405 12.622 26.812 12.622h110.89c10.321 0 20.041-4.538 26.668-12.45.265-.317.514-.644.767-.968.207.266.407.536.623.797 6.631 8.021 16.402 12.621 26.809 12.621h110.89c10.321 0 20.041-4.538 26.668-12.45.265-.317.514-.644.767-.968.207.266.407.536.623.797 6.63 8.021 16.402 12.621 26.809 12.621h110.89c10.321 0 20.041-4.538 26.668-12.45 6.632-7.918 9.397-18.294 7.584-28.471zm-455.616-163.26c0-18.827 15.317-34.144 34.146-34.144s34.146 15.317 34.146 34.144v1.439c-2.577 1.002-5.234 1.758-7.943 2.248-9.119 1.653-16.399-.132-19.898-.99-6.705-1.644-13.01-4.563-18.743-8.677-4.221-3.029-10.142-2.282-13.48 1.7-2.274 2.712-4.987 4.918-8.061 6.558-.054.029-.112.051-.166.08v-2.358zm0 30.713v-12.182c2.494-.78 4.911-1.782 7.226-3.017 3.448-1.839 6.598-4.131 9.405-6.841 6.294 3.953 13.087 6.837 20.247 8.593 4.155 1.018 13.884 3.404 26.146 1.182 1.775-.322 3.531-.736 5.268-1.221v12.554c0 9.427-3.895 18.653-10.685 25.314-6.592 6.466-15.168 9.919-24.133 9.758-18.458-.356-33.474-15.671-33.474-34.14zm52.871 45.318v17.464c-11.129 7.875-26.29 7.884-37.435-.01v-17.38c5.497 2.293 11.481 3.625 17.748 3.745.314.006.625.009.939.009 6.518.001 12.861-1.32 18.748-3.828zm-66.451 113.15h-7.46c-5.919 0-11.477-2.617-15.249-7.179-3.772-4.564-5.298-10.516-4.185-16.333l4.35-22.757c.747-3.898 2.039-7.622 3.837-11.119 10.772 2.226 18.707 11.665 18.707 23.089zm80.97-34.3v34.3h-65.97v-34.3c0-16.168-9.722-29.903-23.758-35.674 3.735-3.188 8.027-5.692 12.744-7.406l16.497-5.981c8.124 5.707 17.691 8.557 27.256 8.557 9.721 0 19.441-2.947 27.639-8.829l16.87 6.122c4.686 1.702 9.032 4.262 12.804 7.493-14.084 5.781-24.082 19.682-24.082 35.718zm37.629 27.218c-3.77 4.5-9.298 7.082-15.169 7.082h-7.46v-34.3c0-11.367 8.216-20.98 19.016-23.129 1.85 3.611 3.155 7.469 3.881 11.52l4.049 22.624c1.031 5.791-.542 11.697-4.317 16.203zm60.737-182.099c0-18.827 15.317-34.144 34.146-34.144s34.146 15.317 34.146 34.144v1.439c-2.577 1.002-5.234 1.758-7.943 2.248-9.119 1.653-16.399-.132-19.898-.99-6.705-1.644-13.01-4.563-18.743-8.677-4.221-3.029-10.142-2.282-13.48 1.7-2.274 2.712-4.987 4.918-8.061 6.558-.054.029-.112.051-.166.08v-2.358zm0 30.713v-12.182c2.494-.78 4.911-1.782 7.226-3.017 3.448-1.839 6.598-4.131 9.405-6.841 6.294 3.953 13.087 6.837 20.247 8.593 4.155 1.018 13.885 3.404 26.146 1.182 1.775-.322 3.531-.736 5.268-1.221v12.554c0 9.427-3.895 18.653-10.685 25.314-6.592 6.466-15.184 9.919-24.133 9.758-18.457-.356-33.474-15.671-33.474-34.14zm52.871 45.318v17.464c-11.129 7.875-26.29 7.884-37.435-.01v-17.38c5.497 2.293 11.481 3.625 17.748 3.745.314.006.625.009.939.009 6.518.001 12.862-1.32 18.748-3.828zm-66.45 113.15h-7.46c-5.919 0-11.477-2.617-15.249-7.179-3.772-4.564-5.298-10.516-4.185-16.333l4.35-22.757c.747-3.898 2.039-7.622 3.837-11.119 10.772 2.226 18.707 11.665 18.707 23.089zm80.97-34.3v34.3h-65.97v-34.3c0-16.168-9.722-29.903-23.758-35.674 3.735-3.188 8.027-5.692 12.744-7.406l16.497-5.981c8.124 5.707 17.691 8.557 27.256 8.557 9.721 0 19.441-2.947 27.639-8.829l16.87 6.122c4.686 1.702 9.032 4.262 12.804 7.493-14.084 5.781-24.082 19.682-24.082 35.718zm37.628 27.218c-3.77 4.5-9.298 7.082-15.169 7.082h-7.46v-34.3c0-11.367 8.216-20.98 19.016-23.129 1.85 3.611 3.155 7.469 3.881 11.52l4.049 22.624c1.032 5.791-.542 11.697-4.317 16.203zm131.526-236.074c8.2 0 14.871 6.671 14.871 14.871 0 6.227-3.879 11.62-9.392 13.815-4.701-7.799-11.509-14.184-19.626-18.382 1.933-5.971 7.54-10.304 14.147-10.304zm-70.788 53.975c0-18.827 15.317-34.144 34.146-34.144 3.973 0 7.787.689 11.336 1.942.237.101.48.189.728.266 12.891 4.886 22.081 17.355 22.081 31.936v1.439c-2.577 1.002-5.234 1.758-7.943 2.248-9.118 1.653-16.399-.132-19.898-.99-6.705-1.644-13.01-4.563-18.743-8.677-4.221-3.029-10.142-2.282-13.48 1.7-2.274 2.712-4.987 4.918-8.061 6.558-.054.029-.112.051-.166.08zm0 30.713v-12.182c2.494-.78 4.911-1.782 7.226-3.017 3.448-1.839 6.598-4.131 9.405-6.841 6.294 3.953 13.087 6.837 20.247 8.593 4.155 1.018 13.885 3.404 26.146 1.182 1.775-.322 3.531-.736 5.268-1.221v12.554c0 9.427-3.895 18.653-10.685 25.314-6.592 6.466-15.179 9.919-24.133 9.758-18.458-.356-33.474-15.671-33.474-34.14zm52.871 45.318v16.893c-7.651 5.889-10.561 16.132-12.968 24.608-1.345 4.735-3.596 12.66-5.576 12.66-2.375 0-4.937-8.617-6.467-13.766-2.559-8.605-5.405-18.178-12.424-23.507v-16.813c5.497 2.293 11.481 3.625 17.748 3.745.314.006.625.009.939.009 6.518 0 12.861-1.321 18.748-3.829zm-66.45 113.15h-7.46c-5.919 0-11.477-2.617-15.249-7.179-3.772-4.564-5.298-10.516-4.185-16.333l4.35-22.757c.747-3.898 2.039-7.622 3.837-11.119 10.772 2.226 18.707 11.665 18.707 23.089zm80.969-34.3v34.3h-65.97v-34.3c0-16.168-9.722-29.903-23.758-35.674 3.735-3.188 8.028-5.692 12.744-7.406l16.816-6.097c2.688 2.997 4.638 9.541 6.26 14.997 3.244 10.911 7.282 24.491 20.845 24.491 13.313 0 17.023-13.064 20.005-23.562 1.831-6.447 3.721-13.065 7.044-16.234l17.292 6.275c4.686 1.702 9.032 4.262 12.804 7.493-14.083 5.78-24.082 19.681-24.082 35.717zm37.629 27.218c-3.77 4.5-9.298 7.082-15.169 7.082h-7.46v-34.3c0-11.367 8.216-20.98 19.016-23.129 1.85 3.611 3.155 7.469 3.881 11.52l4.049 22.624c1.032 5.791-.542 11.697-4.317 16.203zm-243.843-283.538v23.022c0 4.142 3.358 7.5 7.5 7.5s7.5-3.358 7.5-7.5v-23.022c0-4.142-3.358-7.5-7.5-7.5s-7.5 3.358-7.5 7.5z"/></g></svg>